# xmcd
#
# Track frame offsets: 
#        150
#        14625
#        30166
#        45117
#        64880
#        78448
#        92392
#        103263
#        118550
#        141725
#        159088
#        174572
#        188905
#
# Disc length: 2751 seconds
#
# Revision: 0
# Processed by: cddbd v1.5.2PL0 Copyright (c) Steve Scherf et al.
# Submitted via: ExactAudioCopy v1.0b1
#
DISCID=9f0abd0d
DTITLE=Kiss   - Kiss - Casablanca-Warner Bros. NB-9001 (US, 2-74 w-o '
DTITLE=Kissin' Time' - Vinyl  
DYEAR=1900
DGENRE=
TTITLE0=Strutter
TTITLE1=Nothin' To Lose
TTITLE2=Firehouse
TTITLE3=Cold Gin
TTITLE4=Let Me Know
TTITLE5=Deuce
TTITLE6=Love Theme from Kiss
TTITLE7=100,000 Years
TTITLE8=Black Diamond
TTITLE9=Kissin' Time
TTITLE10=Nothin' To Lose
TTITLE11=Strutter
TTITLE12=Kissin' Time
EXTD=
EXTT0=
EXTT1=
EXTT2=
EXTT3=
EXTT4=
EXTT5=
EXTT6=
EXTT7=
EXTT8=
EXTT9=
EXTT10=
EXTT11=
EXTT12=
PLAYORDER=
